<svg xmlns="http://www.w3.org/2000/svg" id="Layer_1" viewBox="0 0 734.4 212.7"><style>.st0{fill:#CE2029;}</style><path d="M1.2 28.7c3-.5 6.4-.8 10.2-1.1s8.8-.5 14.5-.5c5.1 0 9.9.5 14.4 1.3s8.5 2.2 11.8 4.3c3.4 1.9 6.1 4.6 8 8C62.1 44 63 48.1 63 53c0 3-.5 5.7-1.3 8.3-1 2.5-2.1 4.8-3.5 6.7s-3.2 3.5-5 4.8c-1.9 1.3-3.7 2.1-5.8 2.2 2.1.3 4.5 1 7 1.9 2.6 1 5 2.5 7.2 4.5 2.2 1.9 4.2 4.6 5.6 7.6 1.4 3.2 2.2 7 2.2 11.3 0 6-1.1 11-3.4 14.8-2.2 3.8-5.3 6.8-9.1 9.1-3.8 2.2-8.3 3.7-13.4 4.6-5.1.8-10.4 1.3-16 1.3-4.3 0-8.5-.2-12.6-.3-4.2-.2-9-.6-14.2-1.3V28.7h.5zm26.2 40.4c2.2 0 4.5-.2 6.4-.6s3.7-1.1 5.3-2.2c1.4-1.1 2.7-2.5 3.5-4.3.8-1.7 1.3-4.1 1.3-6.8s-.5-4.9-1.4-6.5c-1-1.7-2.2-3-3.7-4-1.6-1-3.2-1.6-5.1-1.9-1.9-.3-3.8-.5-5.6-.5-2.6 0-4.8.2-6.6.5v26.6h5.9v-.3zm-6.1 44.1c1.3.2 2.9.3 4.5.5 1.8.2 3.2.2 4.6.2 1.9 0 4-.2 6.1-.5 2.1-.3 4.2-1.1 5.9-2.1 1.9-1.1 3.4-2.5 4.6-4.5 1.3-1.9 1.8-4.3 1.8-7.5 0-2.9-.5-5.2-1.4-7.2s-2.2-3.3-4-4.6c-1.8-1.1-3.7-1.9-6.1-2.4-2.4-.5-5-.6-7.8-.6h-8.2v28.7zm91.5 16.8c-5.9 0-10.9-1-15.2-2.9-4.3-1.9-7.8-4.5-10.7-8-2.9-3.3-5-7.3-6.4-11.8-1.5-4.3-2.1-9.3-2.1-14.5S79 82.6 80.5 78c1.4-4.6 3.5-8.6 6.4-11.9 2.9-3.3 6.4-6 10.7-8 4.3-1.9 9.4-2.9 15.2-2.9 5.9 0 10.9 1 15.3 2.9 4.3 1.9 8 4.6 10.9 8 2.9 3.3 5 7.3 6.4 11.9 1.4 4.6 2.1 9.5 2.1 14.8 0 5.2-.6 10.2-2.1 14.6-1.4 4.5-3.5 8.4-6.4 11.8-2.9 3.3-6.6 6-10.9 8-4.5 1.9-9.6 2.8-15.3 2.8zm0-14.9c5.1 0 9-1.9 11.2-5.7 2.2-3.8 3.4-9.4 3.4-16.5s-1.1-12.7-3.4-16.5c-2.2-3.8-6.1-5.7-11.2-5.7s-8.8 1.9-11 5.7-3.4 9.4-3.4 16.5 1.1 12.7 3.4 16.5c2.2 3.8 5.8 5.7 11 5.7zm76.4 14.9c-5.9 0-10.9-1-15.2-2.9s-7.8-4.5-10.7-8c-2.9-3.3-5-7.3-6.4-11.8-1.4-4.5-2.1-9.4-2.1-14.6s.6-10.2 2.1-14.8c1.4-4.6 3.5-8.6 6.4-11.9 2.9-3.3 6.4-6 10.7-8 4.3-1.9 9.4-2.9 15.2-2.9 5.9 0 10.9 1 15.3 2.9 4.3 1.9 8 4.6 10.9 8 2.9 3.3 5 7.3 6.4 11.9 1.4 4.6 2.1 9.5 2.1 14.8 0 5.2-.6 10.2-2.1 14.6-1.4 4.5-3.5 8.4-6.4 11.8-2.9 3.3-6.6 6-10.9 8-4.3 2-9.4 2.9-15.3 2.9zm0-14.9c5.1 0 9-1.9 11.2-5.7 2.2-3.8 3.4-9.4 3.4-16.5s-1.1-12.7-3.4-16.5c-2.2-3.8-6.1-5.7-11.2-5.7s-8.8 1.9-11 5.7-3.4 9.4-3.4 16.5 1.1 12.7 3.4 16.5c2.2 3.8 5.9 5.7 11 5.7zm44.7-88.6c3.2-.5 6.4-.8 9.8-.8s6.6.3 9.9.8v101.1c-3.2.5-6.6.8-9.9.8-3.4 0-6.6-.3-9.8-.8V26.5zm19.2 63.6l17.7-34c3.7-.5 7.4-.8 11-.8 3.5 0 6.9.3 10.2.8l-18.2 33.1 21.4 38.5c-3.8.5-7.5.8-11 .8-3.2 0-6.7-.3-10.2-.8l-20.9-37.6zm86.2-8.6c0-2.2-.3-4-1.1-5.4-.8-1.4-1.8-2.5-3-3.3-1.3-.8-2.9-1.3-4.8-1.6-1.9-.3-4-.5-6.4-.5-5 0-10.4 1-16 2.7-1.3-2.4-2.2-4.6-2.9-6.8-.6-2.1-1-4.6-1-7.6 4.2-1.3 8.2-2.4 12.3-2.9 4.2-.6 7.8-1 11.4-.8 9.6.2 17.1 2.4 22.5 7.2 5.4 4.6 8 12.1 8 22.3l-.3 41.5c-3.2 1-7.2 1.9-11.8 2.9s-9.9 1.3-15.7 1.3c-4.8 0-9.1-.5-13-1.4-4-.8-7.4-2.2-10.1-4.3-2.9-1.9-5-4.5-6.4-7.5-1.4-3-2.2-6.8-2.2-11.3 0-4.5 1-8.1 2.9-11.1s4.5-5.4 7.5-7.2c3-1.7 6.4-3 10.1-3.8 3.7-.8 7.4-1.1 11.2-1.1 2.7 0 5.6.2 9 .5l-.2-1.8zm-.2 14.2c-1.1-.2-2.2-.3-3.7-.5-1.3-.2-2.4-.2-3.5-.2-4.5 0-8.2.8-10.9 2.4s-4 4.1-4 7.8c0 2.4.5 4.3 1.4 5.6 1 1.3 2.2 2.2 3.7 2.9 1.4.6 3 1 4.6 1.1 1.6.2 3 .2 4.3.3 1.4 0 2.7-.2 4.2-.3 1.4-.2 2.6-.5 3.7-.6l.2-18.5zm37.1-23.1h-9.1l-.6-2.7 26.1-33.1h3.2v20.8h16.8c.3 1.4.5 2.7.5 3.7.2 1.1.2 2.2.2 3.5 0 1.3 0 2.5-.2 3.7-.2 1.3-.3 2.5-.5 4h-16.8v28.1c0 2.9.2 5.1.6 7 .5 1.7 1.1 3.2 2.1 4.1 1 1 1.9 1.7 3.2 2.1 1.3.3 2.9.5 4.6.5 1.4 0 2.7-.2 4.2-.3 1.3-.2 2.6-.5 3.5-.6.6 1.7 1.1 3.5 1.4 5.4.3 1.9.5 3.5.5 5.1v2.5c0 .6-.2 1.4-.2 2.1-4.3 1-8.6 1.6-13.3 1.6-8.5 0-14.9-1.9-19.3-5.9-4.5-4-6.7-10.3-6.7-19.1V72.6h-.2zm87.3 8.9c0-2.2-.3-4-1.1-5.4-.8-1.4-1.8-2.5-3-3.3-1.3-.8-2.9-1.3-4.8-1.6s-4-.5-6.4-.5c-5 0-10.4 1-16 2.7-1.3-2.4-2.2-4.6-2.9-6.8-.6-2.1-1-4.6-1-7.6 4.2-1.3 8.2-2.4 12.3-2.9 4.2-.6 7.8-1 11.4-.8 9.6.2 17.1 2.4 22.5 7.2 5.4 4.6 8 12.1 8 22.3l-.3 41.5c-3.2 1-7.2 1.9-11.8 2.9s-9.9 1.3-15.7 1.3c-4.8 0-9.1-.5-13-1.4-4-.8-7.4-2.2-10.1-4.3-2.9-1.9-5-4.5-6.4-7.5-1.4-3-2.2-6.8-2.2-11.3 0-4.5 1-8.1 2.9-11.1s4.5-5.4 7.4-7.2c3-1.7 6.4-3 10.1-3.8 3.7-.8 7.4-1.1 11.2-1.1 2.7 0 5.6.2 9 .5l-.1-1.8zm-.1 14.2c-1.1-.2-2.2-.3-3.7-.5-1.3-.2-2.4-.2-3.5-.2-4.5 0-8.2.8-10.9 2.4-2.7 1.6-4 4.1-4 7.8 0 2.4.5 4.3 1.4 5.6 1 1.3 2.2 2.2 3.7 2.9 1.4.6 3 1 4.6 1.1 1.6.2 3 .2 4.3.3 1.4 0 2.7-.2 4.2-.3 1.4-.2 2.6-.5 3.7-.6l.2-18.5zm33.2-68.4c3.4-.5 6.6-.8 9.8-.8s6.6.3 9.9.8v36.6c1.4-2.5 3.7-4.6 7-6.2 3.2-1.6 6.9-2.4 11.2-2.4 4.2 0 8 .8 11.7 2.2 3.5 1.4 6.7 3.7 9.3 6.7 2.6 3 4.6 6.7 6.1 11.3 1.4 4.5 2.2 9.9 2.2 16.1 0 6-1 11.3-2.7 16.1-1.9 4.8-4.5 8.7-8 12.1-3.5 3.3-7.8 5.9-13 7.6-5.1 1.7-10.9 2.7-17.3 2.7-2.1 0-4.2-.2-6.4-.3-2.2-.2-4.6-.5-6.9-.8-2.4-.3-4.5-.8-6.7-1.3-2.1-.5-4.2-1.1-5.9-1.7V27.3h-.3zm19.7 85.5c1.1.3 2.2.6 3.5.6 1.3.2 2.6.2 3.8.2 6.1 0 10.7-1.7 14.2-5.2 3.4-3.5 5.1-9.1 5.1-16.5 0-6.7-1.1-11.8-3.2-15.1-2.1-3.5-5.8-5.2-10.9-5.2-3.7 0-6.7 1.3-9.1 3.7-2.4 2.4-3.5 6.4-3.5 11.6v25.9zm58-84.7c3.4-.5 6.6-.8 9.9-.8 3.2 0 6.4.3 9.8.8v72.7c0 2.9.2 5.1.5 7 .3 1.7.8 3.2 1.6 4.1.6 1 1.6 1.6 2.7 2.1 1.1.3 2.6.5 4.2.5.8 0 1.6 0 2.4-.2 1-.2 1.8-.2 2.6-.5 1 3.8 1.6 7.5 1.6 11.1v2.1c0 .6-.2 1.3-.3 2.1-1.4.5-3.2.8-5.3 1-2.1.2-4 .3-5.8.3-7.2 0-12.8-1.9-17.1-5.9s-6.4-10.3-6.4-19.1V28.1h-.4zm57.1 70.6c.3 5.6 2.2 9.5 5.9 12.1 3.5 2.5 8.2 3.7 13.9 3.7 3.2 0 6.4-.3 9.6-1 3.4-.6 6.4-1.4 9.4-2.5 1 1.9 1.9 4.1 2.7 6.7.8 2.5 1.1 5.4 1.3 8.3-7.2 2.7-15.3 4.1-24.5 4.1-6.7 0-12.5-1-17.1-2.7-4.8-1.9-8.6-4.5-11.7-7.6-3-3.3-5.3-7.2-6.7-11.8-1.4-4.5-2.1-9.4-2.1-14.8 0-5.2.8-10.2 2.2-14.8 1.4-4.6 3.7-8.6 6.6-12.1 2.9-3.3 6.6-6 10.9-8.1 4.3-1.9 9.3-3 15-3 5 0 9.4 1 13.4 2.7 3.8 1.7 7.2 4.1 9.9 7.2 2.7 3 4.8 6.7 6.2 10.8 1.4 4.1 2.1 8.7 2.1 13.5 0 1.7 0 3.5-.2 5.2-.2 1.7-.3 3-.5 4.1h-46.3zM659.7 85c-.2-4.5-1.4-8-3.7-10.7-2.2-2.7-5.4-4.1-9.6-4.1-4.6 0-8.2 1.3-10.6 3.8s-3.8 6.2-4.3 11h28.2z"/><path d="M697.9 23.8s-9.9-22.4-16-20.2c-26.7 10.2 15.2 67.9 15.2 67.9s44.9-36.4 32.8-56.1c-3.2-5.2-17.6-7-17.6-7l-14.4 15.4z" class="st0"/><path d="M700 29.2c-1.3 1.3-3.4.3-3.4.3-1.9-.6-2.2-1.9-3.2-5.1-1.3-4.3-4.6-15.9-9.3-17.3-.6-.2-1.6-.3-3.4.6-2.6 1.6-4 4.1-4.3 7.8-1.4 15.4 15.5 43.3 21.4 51.2.3-.2.5-.5.8-.8 8.8-7.8 35.3-31.3 27.3-49.3-1.3-2.7-3.4-4-5-4.5-5.8-1.7-15.8 1.6-20.6 15.1l-.5 1.3.2.7zm-2.9 45.3c-4.5-1.4-24.5-33.4-26.7-53.4-1.3-11.6 3.4-16.9 7.5-19.4 2.9-1.7 5.8-2.1 8.5-1.3 6.2 2.1 9.9 10.2 12 17 6.6-10.3 17-14.1 24.9-11.7 4 1.3 7.2 4.1 9 8 10.1 22.6-18.2 47.7-28.9 57.1-1.1 1-1.9 1.7-2.4 2.2 0 .1-2.4 2.6-3.9 1.5z"/><path d="M384.3 198v4.7h-4.6v-42.3h4.6v18.5c1.7-2.8 5.6-5.3 9.7-5.3 7.5 0 13.1 5.5 13.1 14.4v.4c0 8.8-5.2 14.8-13.1 14.8-4.7.1-8.1-2.3-9.7-5.2zm18.1-9.3v-.4c0-7.2-4-10.8-8.9-10.8-5.3 0-9.4 3.5-9.4 10.8v.4c0 7.3 3.9 10.8 9.5 10.8 5.7 0 8.8-3.9 8.8-10.8zm20.2 11.1l-11.3-25.7h4.9l8.8 20.5 8-20.5h4.7l-15.9 38.6h-4.6l5.4-12.9zm37.6-36.2h6.7l12.2 30.5 11.8-30.5h6.6v39.2h-4.8v-33l-13.1 33h-1.5l-13.5-33v33h-4.4v-39.2zm46.9 1.5c0-1.6 1.4-3 3-3 1.7 0 3 1.4 3 3s-1.4 3-3 3-3-1.3-3-3zm.9 9h4.6v28.6H508v-28.6zm12.6 14.6v-.4c0-8.8 6.3-14.7 14-14.7 6 0 11.6 2.7 12.5 10h-4.5c-.7-4.5-4-6.2-8-6.2-5.2 0-9.3 4.2-9.3 10.9v.4c0 7 3.9 10.7 9.4 10.7 4.1 0 7.8-2.4 8.3-7h4.2c-.6 6.2-5.6 10.8-12.6 10.8-8 .1-14-5.6-14-14.5zm34.3-28.3h4.6v18.2c1.3-2.7 4.5-5 9.3-5 5.9 0 10.1 3.2 10.1 11.6v17.6h-4.6v-17.9c0-5-2.1-7.3-6.8-7.3-4.2 0-8 2.7-8 7.8v17.4h-4.6v-42.4zm31.7 28.3v-.4c0-8.7 5.6-14.7 13.5-14.7 6.7 0 12.9 4 12.9 14.2v1.5h-21.7c.2 6.5 3.4 10.1 9.3 10.1 4.5 0 7-1.6 7.7-5h4.6c-1 5.8-5.8 8.8-12.3 8.8-8.3.1-14-5.6-14-14.5zm21.7-3c-.4-5.9-3.5-8.3-8.3-8.3-4.7 0-7.8 3.2-8.6 8.3h16.9zm12.6-25.3h4.6v42.3h-4.6v-42.3zm14.1 4.7c0-1.6 1.4-3 3-3s3 1.4 3 3-1.4 3-3 3-3-1.3-3-3zm.8 9h4.6v28.6h-4.6v-28.6zm14.8 0h4.6v4.5c1.3-2.7 4.5-5 9.3-5 5.9 0 10.1 3.2 10.1 11.6v17.6H670v-17.9c0-5-2.1-7.3-6.8-7.3-4.2 0-8 2.7-8 7.8v17.4h-4.6v-28.7z"/></svg>